<svg width="112" height="30" viewBox="0 0 112 30" fill="none" xmlns="http://www.w3.org/2000/svg">
<g clip-path="url(#clip0_2874_74935)">
<path fill-rule="evenodd" clip-rule="evenodd" d="M14.6389 29.1996C22.4476 29.1996 28.7777 22.8694 28.7777 15.0607C28.7777 7.25206 22.4476 0.921875 14.6389 0.921875C6.83017 0.921875 0.5 7.25206 0.5 15.0607C0.5 22.8694 6.83017 29.1996 14.6389 29.1996ZM19.0497 7.50835C19.2644 6.74571 18.5243 6.29473 17.8484 6.77628L8.4129 13.4981C7.67987 14.0203 7.79517 15.0607 8.5861 15.0607H11.0707V15.0415H15.9131L11.9675 16.4337L10.228 22.6131C10.0133 23.3758 10.7534 23.8267 11.4294 23.3452L20.8649 16.6234C21.5979 16.1012 21.4825 15.0607 20.6917 15.0607H16.9238L19.0497 7.50835Z" fill="#3C2769"/>
<path d="M38.0581 22.0605H43.4648C46.2229 22.0605 47.812 20.7271 47.812 18.4439C47.812 16.8913 47.0997 15.8319 45.6932 15.3753C46.9535 14.8456 47.6111 13.7861 47.6111 12.3066C47.6111 10.0782 46.0037 8.70824 43.3734 8.70824H38.0581V22.0605ZM43.1725 10.7723C44.4877 10.7723 45.2183 11.3933 45.2183 12.5441C45.2183 13.7313 44.5059 14.4072 43.2273 14.4072H40.3961V10.7723H43.1725ZM43.3734 16.3799C44.6703 16.3799 45.4192 17.0192 45.4192 18.1517C45.4192 19.3572 44.6886 19.9965 43.3734 19.9965H40.3961V16.3799H43.3734ZM53.6638 22.298C56.0201 22.298 57.664 21.1107 58.0476 19.138H55.9836C55.7278 19.9965 54.9241 20.4714 53.7003 20.4714C52.2208 20.4714 51.3806 19.6677 51.2162 18.0786L58.0111 18.0603V17.3845C58.0111 14.5716 56.2941 12.7632 53.5907 12.7632C50.9422 12.7632 49.0973 14.7177 49.0973 17.5489C49.0973 20.3436 50.9787 22.298 53.6638 22.298ZM53.609 14.5898C54.9424 14.5898 55.8009 15.4118 55.8009 16.6539H51.271C51.4902 15.3022 52.2939 14.5898 53.609 14.5898ZM62.3904 22.298C63.7969 22.298 65.0207 21.6587 65.4043 20.7271L65.5687 22.0605H67.5231V16.5808C67.5231 14.0784 66.0253 12.7632 63.596 12.7632C61.1484 12.7632 59.541 14.0419 59.541 15.9963H61.4406C61.4406 15.0465 62.1712 14.4985 63.4864 14.4985C64.6189 14.4985 65.3495 14.9917 65.3495 16.2155V16.4164L62.6462 16.6173C60.5091 16.7817 59.3035 17.8229 59.3035 19.4851C59.3035 21.1838 60.4725 22.298 62.3904 22.298ZM63.1211 20.6175C62.1164 20.6175 61.5685 20.2157 61.5685 19.3937C61.5685 18.6631 62.0982 18.2065 63.4864 18.0786L65.3678 17.9325V18.4074C65.3678 19.7956 64.491 20.6175 63.1211 20.6175ZM75.8314 13.0372V17.7681C75.8314 19.4851 75.1555 20.307 73.7491 20.307C72.507 20.307 71.8311 19.6129 71.8311 17.8959V13.0372H69.6027V18.6814C69.6027 20.8915 70.8265 22.298 72.9088 22.298C74.1144 22.298 75.2834 21.7135 75.8314 20.855L75.9958 22.0605H78.0598V13.0372H75.8314ZM83.4301 22.0605V14.9003H85.1836V13.0372H83.4301V10.2243H81.2017V13.0372H79.4664V14.9003H81.2017V22.0605H83.4301ZM87.6832 11.2289C88.4138 11.2289 89.0166 10.6261 89.0166 9.87725C89.0166 9.12835 88.4138 8.54385 87.6832 8.54385C86.916 8.54385 86.3132 9.12835 86.3132 9.87725C86.3132 10.6261 86.916 11.2289 87.6832 11.2289ZM86.5689 22.0605H88.7974V13.0372H86.5689V22.0605ZM90.57 17.5306C90.57 20.3984 92.3601 22.298 95.0999 22.298C97.4562 22.298 99.2097 20.855 99.4837 18.7544H97.237C96.9996 19.7408 96.2142 20.2888 95.0999 20.2888C93.6752 20.2888 92.7984 19.2293 92.7984 17.5306C92.7984 15.8319 93.7483 14.7542 95.173 14.7542C96.2324 14.7542 96.9813 15.2839 97.237 16.3068H99.4655C99.228 14.1332 97.5476 12.7632 95.0817 12.7632C92.4149 12.7632 90.57 14.736 90.57 17.5306ZM100.613 17.5306C100.613 20.3436 102.64 22.2797 105.435 22.2797C108.229 22.2797 110.257 20.3436 110.257 17.5306C110.257 14.7177 108.229 12.7815 105.435 12.7815C102.64 12.7815 100.613 14.7177 100.613 17.5306ZM102.841 17.5306C102.841 15.8867 103.9 14.7725 105.435 14.7725C106.969 14.7725 108.029 15.8867 108.029 17.5306C108.029 19.1745 106.969 20.2888 105.435 20.2888C103.9 20.2888 102.841 19.1745 102.841 17.5306Z" fill="#3C2769"/>
</g>
<defs>
<clipPath id="clip0_2874_74935">
<rect width="112" height="29" fill="white" transform="translate(0 0.5)"/>
</clipPath>
</defs>
</svg>
