<svg width="281" height="278" viewBox="0 0 281 278" fill="none" xmlns="http://www.w3.org/2000/svg">
<path fill-rule="evenodd" clip-rule="evenodd" d="M64.3479 203.333C67.1702 201.794 69.5069 199.5 72.4488 198.135C72.9126 197.919 73.6157 197.317 73.5577 197.021C72.9749 194.089 75.925 192.778 76.568 190.292C77.1386 188.09 76.6188 186.908 75.1366 185.874C69.3948 181.869 63.8923 177.561 58.5116 173.09C57.0958 171.914 55.6826 170.72 54.3882 169.414C53.1478 168.162 51.6085 168.421 50.2671 168.652C48.8114 168.903 49.5081 170.438 49.2287 171.428C47.9188 176.071 50.11 180.07 51.3576 184.249C52.9651 189.639 54.7026 194.994 56.134 200.431C57.3272 204.958 59.9919 206.683 64.3479 203.333" fill="#D3CEEA"/>
<path fill-rule="evenodd" clip-rule="evenodd" d="M50.4512 108.895C51.529 110.959 53.6311 111.618 56.0427 110.579C59.4001 109.131 62.7908 107.743 66.0715 106.136C69.068 104.669 69.2208 101.442 69.5962 98.7712C69.8538 96.9324 68.1302 95.5043 66.2368 94.5792C59.901 91.4818 54.1746 87.4136 48.6046 83.121C47.6336 82.3728 46.6881 81.7136 45.3246 82.2831C43.8487 82.8987 44.1726 84.0957 44.0106 85.2826C43.527 88.8276 44.8226 92.0174 45.7386 95.2899C47.0357 99.9194 48.3941 104.529 50.4512 108.895" fill="#D3CEEA"/>
<path fill-rule="evenodd" clip-rule="evenodd" d="M83.0854 150.178C84.5583 152.723 85.019 155.119 88.075 154.888C88.8001 154.833 89.5158 154.913 90.0502 154.466C92.4547 152.457 95.1509 151.099 98.2915 150.901C100.748 150.746 101.394 149.386 102.006 147.173C103.181 142.923 102.625 141.807 98.996 139.481C93.1966 135.763 87.1156 132.399 82.0684 127.59C81.3356 126.891 80.5696 126.194 79.7146 125.665C77.9448 124.571 76.3815 125.435 75.977 127.459C75.125 131.728 76.8998 135.454 78.3625 139.207C79.9056 143.166 81.7155 147.02 83.0854 150.178" fill="#D3CEEA"/>
<path fill-rule="evenodd" clip-rule="evenodd" d="M135.482 245.175C138.008 243.308 139.324 240.581 140.191 237.711C140.505 236.672 139.675 235.403 138.592 234.682C134.956 232.26 132.128 228.873 128.4 226.458C126.639 225.317 124.993 223.264 123.263 221.67C122.046 220.548 120.487 219.432 118.769 220.255C117.058 221.076 117.06 223.079 117.042 224.648C116.998 228.66 118.392 232.441 119.621 236.186C120.965 240.282 122.62 244.281 124.218 248.292C124.857 249.895 126.388 250.257 127.016 251.681C127.352 252.439 128.317 252.019 129.037 251.281C131.103 249.166 133.323 247.2 135.482 245.175" fill="#D3CEEA"/>
<path fill-rule="evenodd" clip-rule="evenodd" d="M104.284 104.967C105.656 107.357 107.543 107.753 109.885 105.77C111.8 104.147 114.055 103.135 116.151 101.945C118.741 100.475 119.784 98.3613 120.651 95.8211C121.45 93.479 120.586 91.7971 118.697 90.6575C112.67 87.0251 107.05 82.8734 101.812 78.1736C99.7716 76.3436 98.1647 77.0889 97.6033 79.7938C97.2182 81.6462 97.2104 83.4795 97.5982 85.2846C99.0721 92.161 101.466 98.7334 104.284 104.967" fill="#D3CEEA"/>
<path fill-rule="evenodd" clip-rule="evenodd" d="M159.248 101.783C161.039 100.631 162.656 99.7761 164.1 98.5812C167.538 95.7369 168.093 93.9059 165.303 90.5121C161.738 86.174 158.372 81.6309 154.164 77.8524C153.276 77.0558 152.34 76.2267 151.277 75.7329C149.409 74.866 147.867 75.1728 147.223 77.4804C146.673 79.4527 146.294 81.4298 146.452 83.4883C146.9 89.2944 147.932 94.9982 149.182 100.681C149.847 103.702 152.997 105.016 155.553 103.663C156.858 102.971 158.185 102.322 159.248 101.783" fill="#D3CEEA"/>
<path fill-rule="evenodd" clip-rule="evenodd" d="M163.793 200.918C165.649 200.31 167.5 199.905 169.045 198.554C171.322 196.564 171.989 191.059 169.794 189.137C164.922 184.87 160.657 179.998 155.929 175.595C154.851 174.591 153.801 173.377 152.072 174.113C150.334 174.853 150.409 176.493 150.497 177.933C150.94 185.153 152.551 192.187 154.153 199.208C154.627 201.282 156.051 202.318 158.431 202.294C160.426 202.275 161.848 200.664 163.793 200.918" fill="#D3CEEA"/>
<path fill-rule="evenodd" clip-rule="evenodd" d="M125.474 55.9169C127.893 60.712 131.175 61.6168 136.36 59.8284C139.078 58.8913 140.211 56.8328 141.633 54.947C143.29 52.7476 143.151 50.6102 140.993 48.3562C138.217 45.4575 134.965 43.2043 131.897 40.7071C129.388 38.665 126.907 36.6052 124.506 34.4374C122.597 32.715 121.775 33.29 120.583 35.2725C118.521 38.7013 119.53 41.8522 120.748 45.0101C122.173 48.7032 123.886 52.2862 125.474 55.9169" fill="#D3CEEA"/>
<path fill-rule="evenodd" clip-rule="evenodd" d="M207.746 146.313C206.758 144.567 205.268 143.294 203.585 142.322C199.325 139.862 195.518 136.785 191.661 133.775C188.53 131.33 188.392 131.743 186.7 134.994C184.94 138.378 185.763 141.419 186.378 144.593C187.045 148.039 187.889 151.463 188.889 154.827C189.799 157.893 190.664 158.131 193.755 157.529C196.609 156.973 199.552 157.009 202.273 155.666C203.573 155.025 203.911 154.303 203.661 153.005C203.436 151.832 204.215 151.474 205.199 151.346C207.865 150.997 209.073 148.602 207.746 146.313" fill="#D3CEEA"/>
<path fill-rule="evenodd" clip-rule="evenodd" d="M220.179 207.543C222.945 205.519 225.424 203.898 227.681 202.01C231.393 198.905 231.384 194.839 228.099 191.192C224.825 187.558 221.606 183.896 217.698 180.909C214.523 178.483 212.722 178.97 211.837 182.774C211.449 184.447 211.362 186.284 211.587 187.988C212.363 193.829 213.011 199.706 214.925 205.334C215.961 208.385 217.769 209.025 220.179 207.543" fill="#D3CEEA"/>
<path fill-rule="evenodd" clip-rule="evenodd" d="M190.771 67.7244C191.088 66.6848 189.108 65.5827 190.412 64.2573C190.869 63.7938 191.73 64.4992 191.833 65.1387C192.023 66.3259 193.193 67.563 192.077 68.7159C191.531 69.2792 191.196 68.4619 190.771 67.7244M187.182 75.4889C189.182 79.1392 190.404 79.2718 193.451 77.4337C195.185 76.3889 197.284 75.947 199.219 75.2358C202.239 74.1267 205.009 69.3188 204.393 66.564C204.188 65.6539 203.83 65.091 203.125 64.5753C198.202 60.9634 193.316 57.3023 188.38 53.71C186.224 52.1431 185.043 52.6003 184.2 55.1896C182.309 61.0151 184.377 66.4892 185.771 72.0042C186.129 73.4215 186.872 74.7427 187.182 75.4889" fill="#D3CEEA"/>
<path fill-rule="evenodd" clip-rule="evenodd" d="M239.977 103.59C236.222 98.3718 231.43 94.184 226.553 90.1233C224.469 88.389 223.367 88.972 222.333 91.53C221.41 93.8128 221.504 96.1196 222.344 98.2943C224.338 103.456 226.48 108.563 228.661 113.65C229.581 115.797 231.439 116.094 233.697 115.344C237.298 114.149 239.124 111.395 240.678 108.308C241.532 106.611 240.63 105.105 239.977 103.59" fill="#D3CEEA"/>
<path fill-rule="evenodd" clip-rule="evenodd" d="M145.827 155.048C146.656 154.474 147.434 153.509 148.001 153.621C149.996 154.014 151.151 152.288 152.915 151.976C154.798 151.644 154.957 146.444 153.665 144.639C151.751 141.965 148.265 141.586 146.226 138.969C144.212 136.386 141.523 134.324 139.092 132.074C138.383 131.417 137.519 131.142 136.543 131.64C135.498 132.171 135.226 132.937 135.292 134.12C135.665 140.672 137.487 146.972 138.592 153.394C139.201 156.941 142.481 156.421 145.827 155.048" fill="#D3CEEA"/>
<path fill-rule="evenodd" clip-rule="evenodd" d="M107.401 193.481C108.447 196.843 112.66 196.568 114.511 194.769C115.372 193.93 115.996 193.123 117.55 192.995C119.461 192.838 122.233 192.392 120.794 189.004C120.68 188.735 121.256 188.23 121.376 187.798C122.119 185.118 120.775 182.663 118.092 181.653C117.492 181.427 116.859 181.157 116.388 180.742C113.168 177.911 108.849 176.463 106.343 172.725C105.695 171.757 104.779 171.035 103.525 171.517C102.266 172 102.184 173.149 102.229 174.311C102.251 174.865 102.09 175.451 102.218 175.971C103.671 181.89 105.304 187.756 107.401 193.481" fill="#D3CEEA"/>
</svg>
