<svg width="225" height="222" viewBox="0 0 225 222" fill="none" xmlns="http://www.w3.org/2000/svg">
<path fill-rule="evenodd" clip-rule="evenodd" d="M51.545 162.874C53.8057 161.641 55.6775 159.803 58.034 158.711C58.4055 158.538 58.9687 158.055 58.9222 157.818C58.4554 155.469 60.8185 154.419 61.3335 152.428C61.7906 150.664 61.3742 149.717 60.187 148.889C55.5877 145.681 51.1801 142.23 46.87 138.649C45.7359 137.707 44.6039 136.75 43.567 135.704C42.5734 134.701 41.3404 134.909 40.2659 135.094C39.0999 135.295 39.6579 136.524 39.4341 137.317C38.3849 141.037 40.1401 144.24 41.1395 147.587C42.4271 151.904 43.8189 156.194 44.9654 160.55C45.9212 164.176 48.0557 165.558 51.545 162.874" fill="#D3CEEA"/>
<path fill-rule="evenodd" clip-rule="evenodd" d="M40.4132 87.228C41.2765 88.8818 42.9604 89.4094 44.8921 88.577C47.5815 87.4174 50.2975 86.3055 52.9254 85.0183C55.3256 83.8428 55.4481 81.2579 55.7487 79.1187C55.9551 77.6459 54.5745 76.5019 53.0578 75.7609C47.9827 73.2798 43.3957 70.0211 38.934 66.5826C38.1563 65.9833 37.3989 65.4553 36.3067 65.9115C35.1245 66.4045 35.3839 67.3633 35.2541 68.3141C34.8667 71.1537 35.9045 73.7089 36.6383 76.3302C37.6773 80.0385 38.7654 83.7307 40.4132 87.228" fill="#D3CEEA"/>
<path fill-rule="evenodd" clip-rule="evenodd" d="M66.5545 120.297C67.7343 122.335 68.1033 124.255 70.5513 124.07C71.132 124.026 71.7053 124.09 72.1334 123.732C74.0595 122.122 76.2192 121.035 78.7349 120.876C80.7026 120.752 81.2199 119.663 81.7104 117.89C82.6513 114.486 82.2059 113.592 79.2992 111.728C74.6537 108.75 69.7828 106.056 65.7398 102.203C65.1529 101.644 64.5392 101.085 63.8543 100.662C62.4367 99.7852 61.1845 100.477 60.8605 102.099C60.178 105.518 61.5997 108.503 62.7713 111.509C64.0074 114.68 65.4572 117.767 66.5545 120.297" fill="#D3CEEA"/>
<path fill-rule="evenodd" clip-rule="evenodd" d="M108.525 196.391C110.549 194.896 111.603 192.712 112.297 190.412C112.549 189.58 111.884 188.564 111.017 187.986C108.104 186.046 105.839 183.333 102.852 181.398C101.442 180.484 100.123 178.84 98.7376 177.563C97.763 176.664 96.5144 175.77 95.1381 176.43C93.7672 177.087 93.7688 178.692 93.7542 179.948C93.7196 183.162 94.8356 186.191 95.8199 189.191C96.8969 192.472 98.2223 195.675 99.5022 198.888C100.014 200.172 101.24 200.462 101.744 201.602C102.013 202.21 102.786 201.874 103.363 201.282C105.018 199.588 106.796 198.013 108.525 196.391" fill="#D3CEEA"/>
<path fill-rule="evenodd" clip-rule="evenodd" d="M83.5333 84.0821C84.6322 85.9968 86.1442 86.3135 88.0197 84.7254C89.5543 83.4256 91.3601 82.6149 93.0391 81.6615C95.1141 80.4843 95.9491 78.7908 96.6438 76.756C97.2839 74.88 96.5918 73.5327 95.0787 72.6199C90.2512 69.7103 85.7491 66.3847 81.5534 62.62C79.919 61.1541 78.6318 61.7511 78.1822 63.9178C77.8736 65.4016 77.8674 66.8702 78.178 68.3161C79.3587 73.8242 81.2764 79.0888 83.5333 84.0821" fill="#D3CEEA"/>
<path fill-rule="evenodd" clip-rule="evenodd" d="M127.562 81.5292C128.996 80.607 130.292 79.922 131.449 78.9649C134.203 76.6865 134.647 75.2199 132.412 72.5014C129.557 69.0264 126.86 65.3873 123.489 62.3606C122.779 61.7226 122.028 61.0584 121.177 60.6629C119.681 59.9685 118.445 60.2142 117.93 62.0626C117.489 63.6425 117.185 65.2262 117.312 66.8751C117.671 71.5259 118.498 76.0948 119.499 80.647C120.032 83.0668 122.555 84.1194 124.602 83.0353C125.647 82.481 126.711 81.9614 127.562 81.5292" fill="#D3CEEA"/>
<path fill-rule="evenodd" clip-rule="evenodd" d="M131.2 160.941C132.688 160.454 134.17 160.13 135.408 159.047C137.232 157.453 137.766 153.044 136.008 151.504C132.105 148.086 128.689 144.183 124.901 140.657C124.038 139.852 123.197 138.88 121.812 139.47C120.42 140.062 120.48 141.376 120.551 142.529C120.905 148.313 122.195 153.947 123.479 159.571C123.858 161.233 124.999 162.063 126.906 162.043C128.504 162.028 129.642 160.737 131.2 160.941" fill="#D3CEEA"/>
<path fill-rule="evenodd" clip-rule="evenodd" d="M100.509 44.7912C102.446 48.6322 105.075 49.3569 109.228 47.9244C111.405 47.1738 112.313 45.5249 113.452 44.0143C114.779 42.2525 114.669 40.5404 112.94 38.7349C110.716 36.413 108.111 34.6081 105.653 32.6078C103.644 30.972 101.657 29.3221 99.7333 27.5857C98.2042 26.206 97.5453 26.6665 96.5909 28.2545C94.9394 31.0011 95.7471 33.525 96.723 36.0546C97.8643 39.0128 99.2367 41.8829 100.509 44.7912" fill="#D3CEEA"/>
<path fill-rule="evenodd" clip-rule="evenodd" d="M166.409 117.201C165.618 115.802 164.424 114.783 163.076 114.004C159.663 112.033 156.614 109.568 153.524 107.157C151.016 105.199 150.906 105.53 149.551 108.134C148.141 110.845 148.8 113.28 149.293 115.823C149.827 118.583 150.503 121.326 151.304 124.021C152.033 126.477 152.726 126.668 155.202 126.185C157.488 125.74 159.845 125.769 162.025 124.693C163.066 124.179 163.337 123.601 163.137 122.561C162.956 121.622 163.581 121.335 164.369 121.232C166.504 120.953 167.472 119.034 166.409 117.201" fill="#D3CEEA"/>
<path fill-rule="evenodd" clip-rule="evenodd" d="M176.368 166.246C178.583 164.625 180.57 163.326 182.377 161.814C185.351 159.327 185.343 156.07 182.712 153.149C180.09 150.238 177.511 147.304 174.381 144.912C171.837 142.969 170.395 143.358 169.686 146.406C169.375 147.746 169.305 149.217 169.486 150.582C170.107 155.261 170.627 159.969 172.159 164.477C172.99 166.921 174.437 167.433 176.368 166.246" fill="#D3CEEA"/>
<path fill-rule="evenodd" clip-rule="evenodd" d="M152.814 54.2507C153.068 53.418 151.482 52.5351 152.527 51.4735C152.892 51.1022 153.582 51.6673 153.665 52.1795C153.817 53.1305 154.754 54.1214 153.86 55.0449C153.423 55.4962 153.154 54.8415 152.814 54.2507M149.939 60.4699C151.541 63.3938 152.52 63.5001 154.961 62.0276C156.35 61.1908 158.031 60.8368 159.581 60.2672C162 59.3787 164.219 55.5275 163.726 53.3208C163.561 52.5918 163.274 52.1409 162.71 51.7278C158.766 48.8346 154.852 45.902 150.898 43.0245C149.171 41.7693 148.225 42.1355 147.551 44.2097C146.035 48.876 147.692 53.2609 148.809 57.6785C149.096 58.8138 149.691 59.8721 149.939 60.4699" fill="#D3CEEA"/>
<path fill-rule="evenodd" clip-rule="evenodd" d="M192.228 82.9794C189.22 78.7996 185.381 75.4451 181.475 72.1924C179.805 70.8032 178.923 71.2702 178.094 73.3192C177.355 75.1478 177.43 76.9956 178.103 78.7375C179.7 82.8721 181.416 86.9627 183.163 91.0381C183.9 92.7573 185.388 92.9953 187.197 92.3951C190.081 91.4378 191.544 89.2318 192.789 86.7588C193.473 85.3995 192.75 84.1934 192.228 82.9794" fill="#D3CEEA"/>
<path fill-rule="evenodd" clip-rule="evenodd" d="M116.811 124.198C117.475 123.739 118.098 122.966 118.553 123.055C120.151 123.37 121.075 121.987 122.489 121.738C123.997 121.472 124.124 117.306 123.09 115.861C121.556 113.718 118.764 113.415 117.13 111.319C115.517 109.249 113.363 107.598 111.416 105.796C110.848 105.269 110.156 105.049 109.374 105.448C108.537 105.873 108.32 106.487 108.372 107.434C108.671 112.683 110.131 117.729 111.015 122.873C111.504 125.715 114.131 125.298 116.811 124.198" fill="#D3CEEA"/>
<path fill-rule="evenodd" clip-rule="evenodd" d="M86.0313 154.984C86.8696 157.677 90.2444 157.456 91.7267 156.015C92.4165 155.344 92.9161 154.697 94.1616 154.594C95.6917 154.469 97.9121 154.112 96.7597 151.397C96.6685 151.182 97.1296 150.778 97.2259 150.432C97.8209 148.285 96.7442 146.319 94.595 145.509C94.1145 145.328 93.6077 145.112 93.2301 144.779C90.651 142.512 87.1911 141.352 85.1844 138.358C84.6649 137.582 83.9312 137.004 82.9266 137.39C81.918 137.777 81.8525 138.697 81.8886 139.628C81.9061 140.072 81.7774 140.541 81.8803 140.958C83.0442 145.699 84.3518 150.398 86.0313 154.984" fill="#D3CEEA"/>
</svg>
