<svg width="281" height="278" viewBox="0 0 281 278" fill="none" xmlns="http://www.w3.org/2000/svg">
<path fill-rule="evenodd" clip-rule="evenodd" d="M215.695 203.333C212.873 201.794 210.536 199.5 207.594 198.136C207.13 197.92 206.427 197.317 206.485 197.021C207.068 194.09 204.118 192.778 203.475 190.292C202.904 188.09 203.424 186.909 204.906 185.874C210.648 181.869 216.151 177.561 221.531 173.091C222.947 171.915 224.36 170.721 225.655 169.414C226.895 168.163 228.434 168.422 229.776 168.652C231.232 168.903 230.535 170.438 230.814 171.428C232.124 176.072 229.933 180.071 228.685 184.25C227.078 189.639 225.34 194.995 223.909 200.432C222.716 204.959 220.051 206.684 215.695 203.333" fill="#FDD3E5"/>
<path fill-rule="evenodd" clip-rule="evenodd" d="M229.591 108.895C228.513 110.96 226.411 111.618 223.999 110.579C220.642 109.131 217.251 107.743 213.97 106.136C210.974 104.669 210.821 101.442 210.446 98.7714C210.188 96.9326 211.912 95.5046 213.805 94.5794C220.141 91.482 225.867 87.4139 231.437 83.1212C232.408 82.3731 233.354 81.7139 234.717 82.2834C236.193 82.8989 235.869 84.0959 236.031 85.2828C236.515 88.8279 235.219 92.0177 234.303 95.2901C233.006 99.9196 231.648 104.529 229.591 108.895" fill="#FDD3E5"/>
<path fill-rule="evenodd" clip-rule="evenodd" d="M196.957 150.177C195.484 152.722 195.023 155.118 191.967 154.887C191.242 154.832 190.526 154.912 189.992 154.466C187.587 152.456 184.891 151.099 181.75 150.9C179.294 150.746 178.648 149.385 178.036 147.172C176.861 142.922 177.417 141.807 181.046 139.48C186.845 135.762 192.926 132.399 197.974 127.589C198.706 126.891 199.472 126.194 200.327 125.665C202.097 124.57 203.66 125.434 204.065 127.459C204.917 131.727 203.142 135.454 201.679 139.206C200.136 143.165 198.326 147.02 196.957 150.177" fill="#FDD3E5"/>
<path fill-rule="evenodd" clip-rule="evenodd" d="M144.56 245.174C142.034 243.307 140.718 240.581 139.851 237.71C139.537 236.671 140.367 235.403 141.45 234.681C145.086 232.259 147.914 228.873 151.642 226.458C153.403 225.317 155.049 223.264 156.779 221.67C157.996 220.547 159.554 219.431 161.273 220.255C162.984 221.076 162.982 223.079 163 224.647C163.044 228.66 161.65 232.44 160.421 236.185C159.077 240.282 157.422 244.281 155.824 248.292C155.185 249.894 153.654 250.257 153.026 251.68C152.69 252.438 151.725 252.019 151.005 251.281C148.939 249.165 146.719 247.2 144.56 245.174" fill="#FDD3E5"/>
<path fill-rule="evenodd" clip-rule="evenodd" d="M175.757 104.967C174.385 107.357 172.498 107.753 170.157 105.77C168.241 104.147 165.986 103.135 163.89 101.945C161.3 100.475 160.257 98.3613 159.39 95.8211C158.591 93.479 159.455 91.7971 161.344 90.6575C167.371 87.0251 172.991 82.8734 178.229 78.1736C180.269 76.3436 181.876 77.0889 182.438 79.7938C182.823 81.6462 182.831 83.4795 182.443 85.2846C180.969 92.161 178.575 98.7334 175.757 104.967" fill="#FDD3E5"/>
<path fill-rule="evenodd" clip-rule="evenodd" d="M120.795 101.782C119.004 100.631 117.387 99.7759 115.943 98.581C112.504 95.7367 111.95 93.9057 114.74 90.5119C118.305 86.1738 121.671 81.6306 125.879 77.8521C126.767 77.0556 127.703 76.2264 128.766 75.7327C130.634 74.8658 132.176 75.1725 132.82 77.4801C133.37 79.4524 133.749 81.4295 133.591 83.4881C133.143 89.2941 132.111 94.998 130.861 100.681C130.196 103.702 127.046 105.016 124.49 103.663C123.185 102.97 121.858 102.322 120.795 101.782" fill="#FDD3E5"/>
<path fill-rule="evenodd" clip-rule="evenodd" d="M116.25 200.918C114.394 200.31 112.543 199.905 110.998 198.554C108.721 196.564 108.054 191.06 110.249 189.137C115.121 184.871 119.386 179.998 124.114 175.595C125.192 174.591 126.242 173.378 127.971 174.113C129.709 174.853 129.634 176.493 129.546 177.933C129.103 185.153 127.492 192.187 125.89 199.208C125.416 201.283 123.992 202.319 121.612 202.295C119.617 202.275 118.195 200.664 116.25 200.918" fill="#FDD3E5"/>
<path fill-rule="evenodd" clip-rule="evenodd" d="M154.567 55.9172C152.148 60.7122 148.866 61.6171 143.681 59.8287C140.963 58.8915 139.83 56.8331 138.408 54.9473C136.751 52.7478 136.89 50.6104 139.048 48.3564C141.824 45.4577 145.076 43.2045 148.144 40.7074C150.653 38.6652 153.134 36.6054 155.535 34.4377C157.444 32.7153 158.266 33.2902 159.458 35.2727C161.52 38.7015 160.511 41.8524 159.293 45.0104C157.868 48.7034 156.155 52.2864 154.567 55.9172" fill="#FDD3E5"/>
<path fill-rule="evenodd" clip-rule="evenodd" d="M72.2949 146.313C73.2828 144.567 74.7734 143.294 76.4559 142.323C80.7164 139.862 84.5231 136.785 88.3805 133.775C91.5112 131.33 91.6495 131.743 93.3406 134.994C95.101 138.379 94.2779 141.419 93.6631 144.593C92.9965 148.039 92.1517 151.463 91.152 154.828C90.2424 157.893 89.3774 158.132 86.2861 157.53C83.4323 156.973 80.489 157.01 77.7678 155.667C76.4684 155.025 76.1304 154.304 76.38 153.005C76.6052 151.832 75.8258 151.474 74.8417 151.346C72.1763 150.997 70.9676 148.602 72.2949 146.313" fill="#FDD3E5"/>
<path fill-rule="evenodd" clip-rule="evenodd" d="M59.864 207.542C57.0983 205.518 54.6189 203.897 52.3618 202.009C48.65 198.905 48.6594 194.838 51.944 191.191C55.2179 187.557 58.4373 183.895 62.3449 180.908C65.5202 178.482 67.3211 178.969 68.2056 182.774C68.5942 184.447 68.6812 186.284 68.4557 187.987C67.6804 193.829 67.0317 199.706 65.1181 205.334C64.0815 208.385 62.2742 209.024 59.864 207.542" fill="#FDD3E5"/>
<path fill-rule="evenodd" clip-rule="evenodd" d="M89.272 67.724C88.9554 66.6844 90.9357 65.5823 89.6308 64.2569C89.1746 63.7934 88.3131 64.4988 88.2098 65.1383C88.0199 66.3255 86.8502 67.5626 87.9664 68.7155C88.512 69.2788 88.8474 68.4615 89.272 67.724M92.8611 75.4886C90.8607 79.1388 89.639 79.2715 86.5918 77.4333C84.8577 76.3886 82.7591 75.9466 80.8241 75.2355C77.8044 74.1264 75.0336 69.3185 75.6496 66.5636C75.8549 65.6536 76.2129 65.0906 76.9178 64.5749C81.8406 60.9631 86.7271 57.302 91.6633 53.7097C93.819 52.1427 95.0002 52.5999 95.8425 55.1893C97.734 61.0147 95.6657 66.4888 94.2716 72.0038C93.9135 73.4211 93.1707 74.7423 92.8611 75.4886" fill="#FDD3E5"/>
<path fill-rule="evenodd" clip-rule="evenodd" d="M40.065 103.589C43.8203 98.3713 48.6118 94.1835 53.4889 90.1228C55.573 88.3885 56.6745 88.9715 57.7091 91.5296C58.6319 93.8124 58.5382 96.1191 57.6981 98.2938C55.7042 103.455 53.5621 108.562 51.3813 113.65C50.4612 115.796 48.6032 116.093 46.3454 115.344C42.7445 114.149 40.918 111.395 39.364 108.308C38.5102 106.611 39.4124 105.105 40.065 103.589" fill="#FDD3E5"/>
<path fill-rule="evenodd" clip-rule="evenodd" d="M134.215 155.048C133.386 154.474 132.608 153.509 132.041 153.62C130.046 154.014 128.891 152.287 127.127 151.976C125.244 151.644 125.085 146.443 126.377 144.639C128.291 141.964 131.777 141.585 133.816 138.968C135.83 136.385 138.519 134.323 140.95 132.074C141.659 131.417 142.523 131.141 143.499 131.639C144.544 132.17 144.816 132.937 144.75 134.119C144.377 140.671 142.555 146.971 141.45 153.393C140.841 156.94 137.561 156.42 134.215 155.048" fill="#FDD3E5"/>
<path fill-rule="evenodd" clip-rule="evenodd" d="M172.64 193.482C171.594 196.843 167.381 196.568 165.53 194.769C164.669 193.93 164.045 193.123 162.491 192.995C160.58 192.838 157.808 192.393 159.247 189.004C159.361 188.736 158.785 188.23 158.665 187.798C157.922 185.118 159.266 182.664 161.949 181.653C162.549 181.427 163.182 181.157 163.653 180.742C166.873 177.911 171.192 176.463 173.698 172.726C174.346 171.757 175.262 171.035 176.516 171.517C177.775 172 177.857 173.149 177.812 174.311C177.79 174.865 177.951 175.451 177.823 175.971C176.37 181.89 174.737 187.757 172.64 193.482" fill="#FDD3E5"/>
</svg>
